ffmpeg started on 2025-06-05 at 19:24:56
Report written to "D:\Convert\FFMetrics\reports\ssim_report-6.txt"
Log level: 32
Command line:
ffmpeg -hide_banner -nostdin -i "G:\\\xc0\xed\xe8\xec\xe5\\\xce\xed\xe3\xee\xe8\xed\xe3\xe8\\!_36_\xce\xf1\xe5\xed\xfc_2024\\DreamCast\\\xca\xee\xec\xef\xe0\xed\xe8\xff \xab\xcc\xe0\xe3\xe8-\xcb\xfe\xec\xfc\xe5\xf0\xbb\\[DC] Kabushikigaisha Magilumiere - 11_Telegram_HEVC.mkv" -i "G:\\\xc0\xed\xe8\xec\xe5\\\xce\xed\xe3\xee\xe8\xed\xe3\xe8\\!_36_\xce\xf1\xe5\xed\xfc_2024\\DreamCast\\\xca\xee\xec\xef\xe0\xed\xe8\xff \xab\xcc\xe0\xe3\xe8-\xcb\xfe\xec\xfc\xe5\xf0\xbb\\[DC] Kabushikigaisha Magilumiere - 11_Telegram.mp4" -lavfi "[0:v]settb=AVTB,setpts=PTS-STARTPTS,format=pix_fmts=yuv420p10,fps=24000/1001,scale=1920:1080:flags=bicubic[main];[1:v]settb=AVTB,setpts=PTS-STARTPTS,format=pix_fmts=yuv420p,fps=24000/1001,scale=1920:1080:flags=bicubic[ref];[main][ref]ssim=eof_action=endall:stats_file='D\\:/Convert/FFMetrics/logs/ssim_logfile-6.txt'" -f null -
Input #0, matroska,webm, from 'G:\Аниме\Онгоинги\!_36_Осень_2024\DreamCast\Компания «Маги-Люмьер»\[DC] Kabushikigaisha Magilumiere - 11_Telegram_HEVC.mkv':
  Metadata:
    COMPATIBLE_BRANDS: isomiso2avc1mp41
    MAJOR_BRAND     : isom
    MINOR_VERSION   : 512
    ENCODER         : Lavf61.7.100
  Duration: 00:24:06.66, start: -0.021000, bitrate: 1586 kb/s
  Stream #0:0: Video: hevc (Main 10), yuv420p10le(tv, bt709, progressive), 1920x1080 [SAR 1:1 DAR 16:9], 23.98 fps, 23.98 tbr, 1k tbn (default)
      Metadata:
        HANDLER_NAME    : VideoHandler
        VENDOR_ID       : [0][0][0][0]
        ENCODER         : Lavc61.19.100 libx265
        BPS             : 1388301
        DURATION        : 00:24:06.569708333
        NUMBER_OF_FRAMES: 34683
        NUMBER_OF_BYTES : 251034214
        _STATISTICS_WRITING_APP: mkvpropedit v66.0.0 ('Josie') 64-bit
        _STATISTICS_WRITING_DATE_UTC: 2025-05-31 08:52:39
        _STATISTICS_TAGS: BPS DURATION NUMBER_OF_FRAMES NUMBER_OF_BYTES
  Stream #0:1: Audio: aac (LC), 48000 Hz, stereo, fltp (default)
      Metadata:
        HANDLER_NAME    : SoundHandler
        VENDOR_ID       : [0][0][0][0]
        ENCODER         : Lavc61.19.100 aac
        BPS             : 194017
        DURATION        : 00:24:06.656000000
        NUMBER_OF_FRAMES: 67813
        NUMBER_OF_BYTES : 35084483
        _STATISTICS_WRITING_APP: mkvpropedit v66.0.0 ('Josie') 64-bit
        _STATISTICS_WRITING_DATE_UTC: 2025-05-31 08:52:39
        _STATISTICS_TAGS: BPS DURATION NUMBER_OF_FRAMES NUMBER_OF_BYTES
Input #1, mov,mp4,m4a,3gp,3g2,mj2, from 'G:\Аниме\Онгоинги\!_36_Осень_2024\DreamCast\Компания «Маги-Люмьер»\[DC] Kabushikigaisha Magilumiere - 11_Telegram.mp4':
  Metadata:
    major_brand     : isom
    minor_version   : 512
    compatible_brands: isomiso2avc1mp41
    encoder         : Lavf61.1.100
  Duration: 00:24:06.63, start: 0.000000, bitrate: 3494 kb/s
  Stream #1:0[0x1](und): Video: h264 (High) (avc1 / 0x31637661), yuv420p(tv, bt709, progressive), 1920x1080 [SAR 1:1 DAR 16:9], 3346 kb/s, 23.98 fps, 23.98 tbr, 24k tbn (default)
      Metadata:
        handler_name    : VideoHandler
        vendor_id       : [0][0][0][0]
        encoder         : Lavc61.3.100 h264_qsv
  Stream #1:1[0x2](und): Audio: aac (HE-AACv2) (mp4a / 0x6134706D), 48000 Hz, stereo, fltp, 144 kb/s (default)
      Metadata:
        handler_name    : SoundHandler
        vendor_id       : [0][0][0][0]
Stream mapping:
  Stream #0:0 (hevc) -> settb:default
  Stream #1:0 (h264) -> settb:default
  ssim:default -> Stream #0:0 (wrapped_avframe)
  Stream #0:1 -> #0:1 (aac (native) -> pcm_s16le (native))
Output #0, null, to 'pipe:':
  Metadata:
    COMPATIBLE_BRANDS: isomiso2avc1mp41
    MAJOR_BRAND     : isom
    MINOR_VERSION   : 512
    encoder         : Lavf61.7.100
  Stream #0:0: Video: wrapped_avframe, yuv420p10le(tv, bt709, progressive), 1920x1080 [SAR 1:1 DAR 16:9], q=2-31, 200 kb/s, 23.98 fps, 23.98 tbn
      Metadata:
        encoder         : Lavc61.19.100 wrapped_avframe
  Stream #0:1: Audio: pcm_s16le, 48000 Hz, stereo, s16, 1536 kb/s (default)
      Metadata:
        HANDLER_NAME    : SoundHandler
        VENDOR_ID       : [0][0][0][0]
        _STATISTICS_TAGS: BPS DURATION NUMBER_OF_FRAMES NUMBER_OF_BYTES
        BPS             : 194017
        DURATION        : 00:24:06.656000000
        NUMBER_OF_FRAMES: 67813
        NUMBER_OF_BYTES : 35084483
        _STATISTICS_WRITING_APP: mkvpropedit v66.0.0 ('Josie') 64-bit
        _STATISTICS_WRITING_DATE_UTC: 2025-05-31 08:52:39
        encoder         : Lavc61.19.100 pcm_s16le
frame=  166 fps=0.0 q=-0.0 size=N/A time=00:00:06.92 bitrate=N/A speed=13.5x    frame=  415 fps=407 q=-0.0 size=N/A time=00:00:17.30 bitrate=N/A speed=  17x    frame=  699 fps=452 q=-0.0 size=N/A time=00:00:29.15 bitrate=N/A speed=18.9x    frame=  938 fps=456 q=-0.0 size=N/A time=00:00:39.12 bitrate=N/A speed=  19x    frame= 1181 fps=460 q=-0.0 size=N/A time=00:00:49.25 bitrate=N/A speed=19.2x    frame= 1436 fps=465 q=-0.0 size=N/A time=00:00:59.89 bitrate=N/A speed=19.4x    frame= 1685 fps=468 q=-0.0 size=N/A time=00:01:10.27 bitrate=N/A speed=19.5x    frame= 1874 fps=456 q=-0.0 size=N/A time=00:01:18.16 bitrate=N/A speed=  19x    frame= 2064 fps=445 q=-0.0 size=N/A time=00:01:26.08 bitrate=N/A speed=18.6x    frame= 2196 fps=427 q=-0.0 size=N/A time=00:01:31.59 bitrate=N/A speed=17.8x    frame= 2373 fps=419 q=-0.0 size=N/A time=00:01:38.97 bitrate=N/A speed=17.5x    frame= 2582 fps=418 q=-0.0 size=N/A time=00:01:47.69 bitrate=N/A speed=17.4x    frame= 2793 fps=417 q=-0.0 size=N/A time=00:01:56.49 bitrate=N/A speed=17.4x    frame= 3005 fps=417 q=-0.0 size=N/A time=00:02:05.33 bitrate=N/A speed=17.4x    frame= 3181 fps=411 q=-0.0 size=N/A time=00:02:12.67 bitrate=N/A speed=17.2x    frame= 3327 fps=403 q=-0.0 size=N/A time=00:02:18.76 bitrate=N/A speed=16.8x    frame= 3500 fps=399 q=-0.0 size=N/A time=00:02:25.97 bitrate=N/A speed=16.6x    frame= 3724 fps=401 q=-0.0 size=N/A time=00:02:35.32 bitrate=N/A speed=16.7x    frame= 3911 fps=399 q=-0.0 size=N/A time=00:02:43.12 bitrate=N/A speed=16.6x    frame= 4152 fps=403 q=-0.0 size=N/A time=00:02:53.17 bitrate=N/A speed=16.8x    frame= 4432 fps=409 q=-0.0 size=N/A time=00:03:04.85 bitrate=N/A speed=17.1x    frame= 4721 fps=416 q=-0.0 size=N/A time=00:03:16.90 bitrate=N/A speed=17.3x    frame= 4980 fps=420 q=-0.0 size=N/A time=00:03:27.70 bitrate=N/A speed=17.5x    frame= 5253 fps=424 q=-0.0 size=N/A time=00:03:39.09 bitrate=N/A speed=17.7x    frame= 5516 fps=428 q=-0.0 size=N/A time=00:03:50.06 bitrate=N/A speed=17.8x    frame= 5774 fps=431 q=-0.0 size=N/A time=00:04:00.82 bitrate=N/A speed=  18x    frame= 6014 fps=432 q=-0.0 size=N/A time=00:04:10.83 bitrate=N/A speed=  18x    frame= 6296 fps=436 q=-0.0 size=N/A time=00:04:22.59 bitrate=N/A speed=18.2x    frame= 6572 fps=439 q=-0.0 size=N/A time=00:04:34.10 bitrate=N/A speed=18.3x    frame= 6828 fps=441 q=-0.0 size=N/A time=00:04:44.78 bitrate=N/A speed=18.4x    frame= 7042 fps=441 q=-0.0 size=N/A time=00:04:53.71 bitrate=N/A speed=18.4x    frame= 7323 fps=444 q=-0.0 size=N/A time=00:05:05.43 bitrate=N/A speed=18.5x    frame= 7585 fps=446 q=-0.0 size=N/A time=00:05:16.35 bitrate=N/A speed=18.6x    frame= 7821 fps=446 q=-0.0 size=N/A time=00:05:26.20 bitrate=N/A speed=18.6x    frame= 8068 fps=447 q=-0.0 size=N/A time=00:05:36.50 bitrate=N/A speed=18.6x    frame= 8293 fps=446 q=-0.0 size=N/A time=00:05:45.88 bitrate=N/A speed=18.6x    frame= 8485 fps=445 q=-0.0 size=N/A time=00:05:53.89 bitrate=N/A speed=18.5x    frame= 8776 fps=448 q=-0.0 size=N/A time=00:06:06.03 bitrate=N/A speed=18.7x    frame= 9038 fps=449 q=-0.0 size=N/A time=00:06:16.95 bitrate=N/A speed=18.7x    frame= 9309 fps=451 q=-0.0 size=N/A time=00:06:28.26 bitrate=N/A speed=18.8x    frame= 9588 fps=453 q=-0.0 size=N/A time=00:06:39.89 bitrate=N/A speed=18.9x    frame= 9837 fps=454 q=-0.0 size=N/A time=00:06:50.28 bitrate=N/A speed=18.9x    frame=10106 fps=456 q=-0.0 size=N/A time=00:07:01.50 bitrate=N/A speed=  19x    frame=10372 fps=457 q=-0.0 size=N/A time=00:07:12.59 bitrate=N/A speed=19.1x    frame=10645 fps=459 q=-0.0 size=N/A time=00:07:23.98 bitrate=N/A speed=19.1x    frame=10919 fps=460 q=-0.0 size=N/A time=00:07:35.41 bitrate=N/A speed=19.2x    frame=11187 fps=461 q=-0.0 size=N/A time=00:07:46.59 bitrate=N/A speed=19.2x    frame=11396 fps=460 q=-0.0 size=N/A time=00:07:55.30 bitrate=N/A speed=19.2x    frame=11668 fps=461 q=-0.0 size=N/A time=00:08:06.65 bitrate=N/A speed=19.2x    frame=11928 fps=462 q=-0.0 size=N/A time=00:08:17.49 bitrate=N/A speed=19.3x    frame=12182 fps=463 q=-0.0 size=N/A time=00:08:28.09 bitrate=N/A speed=19.3x    frame=12457 fps=464 q=-0.0 size=N/A time=00:08:39.56 bitrate=N/A speed=19.4x    frame=12746 fps=466 q=-0.0 size=N/A time=00:08:51.61 bitrate=N/A speed=19.4x    frame=13018 fps=467 q=-0.0 size=N/A time=00:09:02.95 bitrate=N/A speed=19.5x    frame=13238 fps=466 q=-0.0 size=N/A time=00:09:12.13 bitrate=N/A speed=19.5x    frame=13490 fps=467 q=-0.0 size=N/A time=00:09:22.64 bitrate=N/A speed=19.5x    frame=13737 fps=467 q=-0.0 size=N/A time=00:09:32.94 bitrate=N/A speed=19.5x    frame=13977 fps=467 q=-0.0 size=N/A time=00:09:42.95 bitrate=N/A speed=19.5x    frame=14221 fps=467 q=-0.0 size=N/A time=00:09:53.13 bitrate=N/A speed=19.5x    frame=14513 fps=469 q=-0.0 size=N/A time=00:10:05.31 bitrate=N/A speed=19.6x    frame=14772 fps=469 q=-0.0 size=N/A time=00:10:16.11 bitrate=N/A speed=19.6x    frame=14979 fps=468 q=-0.0 size=N/A time=00:10:24.74 bitrate=N/A speed=19.5x    frame=15163 fps=466 q=-0.0 size=N/A time=00:10:32.42 bitrate=N/A speed=19.4x    frame=15327 fps=464 q=-0.0 size=N/A time=00:10:39.26 bitrate=N/A speed=19.4x    frame=15500 fps=462 q=-0.0 size=N/A time=00:10:46.47 bitrate=N/A speed=19.3x    frame=15694 fps=461 q=-0.0 size=N/A time=00:10:54.57 bitrate=N/A speed=19.2x    frame=15902 fps=459 q=-0.0 size=N/A time=00:11:03.24 bitrate=N/A speed=19.2x    frame=16083 fps=458 q=-0.0 size=N/A time=00:11:10.79 bitrate=N/A speed=19.1x    frame=16273 fps=457 q=-0.0 size=N/A time=00:11:18.71 bitrate=N/A speed=19.1x    frame=16520 fps=457 q=-0.0 size=N/A time=00:11:29.02 bitrate=N/A speed=19.1x    frame=16785 fps=458 q=-0.0 size=N/A time=00:11:40.07 bitrate=N/A speed=19.1x    frame=16942 fps=456 q=-0.0 size=N/A time=00:11:46.62 bitrate=N/A speed=  19x    frame=17130 fps=454 q=-0.0 size=N/A time=00:11:54.46 bitrate=N/A speed=  19x    frame=17403 fps=455 q=-0.0 size=N/A time=00:12:05.85 bitrate=N/A speed=  19x    frame=17651 fps=456 q=-0.0 size=N/A time=00:12:16.19 bitrate=N/A speed=  19x    frame=17881 fps=456 q=-0.0 size=N/A time=00:12:25.78 bitrate=N/A speed=  19x    frame=18129 fps=456 q=-0.0 size=N/A time=00:12:36.13 bitrate=N/A speed=  19x    frame=18354 fps=456 q=-0.0 size=N/A time=00:12:45.51 bitrate=N/A speed=  19x    frame=18544 fps=455 q=-0.0 size=N/A time=00:12:53.43 bitrate=N/A speed=  19x    frame=18756 fps=454 q=-0.0 size=N/A time=00:13:02.28 bitrate=N/A speed=18.9x    frame=18994 fps=454 q=-0.0 size=N/A time=00:13:12.20 bitrate=N/A speed=18.9x    frame=19265 fps=455 q=-0.0 size=N/A time=00:13:23.51 bitrate=N/A speed=  19x    frame=19547 fps=456 q=-0.0 size=N/A time=00:13:35.27 bitrate=N/A speed=  19x    frame=19814 fps=457 q=-0.0 size=N/A time=00:13:46.40 bitrate=N/A speed=19.1x    frame=20077 fps=457 q=-0.0 size=N/A time=00:13:57.37 bitrate=N/A speed=19.1x    frame=20315 fps=458 q=-0.0 size=N/A time=00:14:07.30 bitrate=N/A speed=19.1x    frame=20601 fps=459 q=-0.0 size=N/A time=00:14:19.23 bitrate=N/A speed=19.1x    frame=20847 fps=459 q=-0.0 size=N/A time=00:14:29.49 bitrate=N/A speed=19.1x    frame=21129 fps=460 q=-0.0 size=N/A time=00:14:41.25 bitrate=N/A speed=19.2x    frame=21384 fps=460 q=-0.0 size=N/A time=00:14:51.89 bitrate=N/A speed=19.2x    frame=21666 fps=461 q=-0.0 size=N/A time=00:15:03.65 bitrate=N/A speed=19.2x    frame=21931 fps=462 q=-0.0 size=N/A time=00:15:14.70 bitrate=N/A speed=19.3x    frame=22195 fps=462 q=-0.0 size=N/A time=00:15:25.71 bitrate=N/A speed=19.3x    frame=22374 fps=461 q=-0.0 size=N/A time=00:15:33.18 bitrate=N/A speed=19.2x    frame=22554 fps=460 q=-0.0 size=N/A time=00:15:40.68 bitrate=N/A speed=19.2x    frame=22709 fps=458 q=-0.0 size=N/A time=00:15:47.15 bitrate=N/A speed=19.1x    frame=22907 fps=457 q=-0.0 size=N/A time=00:15:55.41 bitrate=N/A speed=19.1x    frame=23070 fps=456 q=-0.0 size=N/A time=00:16:02.21 bitrate=N/A speed=  19x    frame=23287 fps=456 q=-0.0 size=N/A time=00:16:11.26 bitrate=N/A speed=  19x    frame=23508 fps=455 q=-0.0 size=N/A time=00:16:20.47 bitrate=N/A speed=  19x    frame=23740 fps=455 q=-0.0 size=N/A time=00:16:30.15 bitrate=N/A speed=  19x    frame=24000 fps=456 q=-0.0 size=N/A time=00:16:41.00 bitrate=N/A speed=  19x    frame=24230 fps=456 q=-0.0 size=N/A time=00:16:50.59 bitrate=N/A speed=  19x    frame=24456 fps=456 q=-0.0 size=N/A time=00:17:00.01 bitrate=N/A speed=  19x    frame=24704 fps=456 q=-0.0 size=N/A time=00:17:10.36 bitrate=N/A speed=  19x    frame=24915 fps=455 q=-0.0 size=N/A time=00:17:19.16 bitrate=N/A speed=  19x    frame=25151 fps=455 q=-0.0 size=N/A time=00:17:29.00 bitrate=N/A speed=  19x    frame=25421 fps=456 q=-0.0 size=N/A time=00:17:40.26 bitrate=N/A speed=  19x    frame=25692 fps=457 q=-0.0 size=N/A time=00:17:51.57 bitrate=N/A speed=  19x    frame=25966 fps=457 q=-0.0 size=N/A time=00:18:02.99 bitrate=N/A speed=19.1x    frame=26223 fps=458 q=-0.0 size=N/A time=00:18:13.71 bitrate=N/A speed=19.1x    frame=26468 fps=458 q=-0.0 size=N/A time=00:18:23.93 bitrate=N/A speed=19.1x    frame=26735 fps=458 q=-0.0 size=N/A time=00:18:35.07 bitrate=N/A speed=19.1x    frame=27003 fps=459 q=-0.0 size=N/A time=00:18:46.25 bitrate=N/A speed=19.1x    frame=27233 fps=459 q=-0.0 size=N/A time=00:18:55.84 bitrate=N/A speed=19.1x    frame=27412 fps=458 q=-0.0 size=N/A time=00:19:03.30 bitrate=N/A speed=19.1x    frame=27678 fps=458 q=-0.0 size=N/A time=00:19:14.40 bitrate=N/A speed=19.1x    frame=27921 fps=458 q=-0.0 size=N/A time=00:19:24.53 bitrate=N/A speed=19.1x    frame=28190 fps=459 q=-0.0 size=N/A time=00:19:35.75 bitrate=N/A speed=19.1x    frame=28449 fps=459 q=-0.0 size=N/A time=00:19:46.56 bitrate=N/A speed=19.2x    frame=28701 fps=460 q=-0.0 size=N/A time=00:19:57.07 bitrate=N/A speed=19.2x    frame=28926 fps=459 q=-0.0 size=N/A time=00:20:06.45 bitrate=N/A speed=19.2x    frame=29121 fps=459 q=-0.0 size=N/A time=00:20:14.58 bitrate=N/A speed=19.1x    frame=29363 fps=459 q=-0.0 size=N/A time=00:20:24.68 bitrate=N/A speed=19.1x    frame=29632 fps=459 q=-0.0 size=N/A time=00:20:35.90 bitrate=N/A speed=19.2x    frame=29865 fps=459 q=-0.0 size=N/A time=00:20:45.61 bitrate=N/A speed=19.2x    frame=30071 fps=459 q=-0.0 size=N/A time=00:20:54.21 bitrate=N/A speed=19.1x    frame=30301 fps=459 q=-0.0 size=N/A time=00:21:03.80 bitrate=N/A speed=19.1x    frame=30520 fps=458 q=-0.0 size=N/A time=00:21:12.93 bitrate=N/A speed=19.1x    frame=30743 fps=458 q=-0.0 size=N/A time=00:21:22.23 bitrate=N/A speed=19.1x    frame=30972 fps=458 q=-0.0 size=N/A time=00:21:31.79 bitrate=N/A speed=19.1x    frame=31221 fps=458 q=-0.0 size=N/A time=00:21:42.17 bitrate=N/A speed=19.1x    frame=31448 fps=458 q=-0.0 size=N/A time=00:21:51.64 bitrate=N/A speed=19.1x    frame=31677 fps=458 q=-0.0 size=N/A time=00:22:01.19 bitrate=N/A speed=19.1x    frame=31893 fps=458 q=-0.0 size=N/A time=00:22:10.20 bitrate=N/A speed=19.1x    frame=32113 fps=458 q=-0.0 size=N/A time=00:22:19.37 bitrate=N/A speed=19.1x    frame=32295 fps=457 q=-0.0 size=N/A time=00:22:26.97 bitrate=N/A speed=  19x    frame=32514 fps=456 q=-0.0 size=N/A time=00:22:36.10 bitrate=N/A speed=  19x    frame=32719 fps=456 q=-0.0 size=N/A time=00:22:44.65 bitrate=N/A speed=  19x    frame=32946 fps=456 q=-0.0 size=N/A time=00:22:54.12 bitrate=N/A speed=  19x    frame=33169 fps=456 q=-0.0 size=N/A time=00:23:03.42 bitrate=N/A speed=  19x    frame=33361 fps=455 q=-0.0 size=N/A time=00:23:11.43 bitrate=N/A speed=  19x    frame=33488 fps=454 q=-0.0 size=N/A time=00:23:16.72 bitrate=N/A speed=18.9x    frame=33696 fps=453 q=-0.0 size=N/A time=00:23:25.40 bitrate=N/A speed=18.9x    frame=33907 fps=453 q=-0.0 size=N/A time=00:23:34.20 bitrate=N/A speed=18.9x    frame=34069 fps=452 q=-0.0 size=N/A time=00:23:40.96 bitrate=N/A speed=18.9x    frame=34190 fps=451 q=-0.0 size=N/A time=00:23:46.00 bitrate=N/A speed=18.8x    frame=34344 fps=450 q=-0.0 size=N/A time=00:23:52.43 bitrate=N/A speed=18.8x    frame=34534 fps=449 q=-0.0 size=N/A time=00:24:00.35 bitrate=N/A speed=18.7x    [Parsed_ssim_10 @ 000001bc53b36f80] SSIM Y:0.994008 (22.224266) U:0.993413 (21.813363) V:0.993474 (21.853429) All:0.993820 (22.090013)
[out#0/null @ 000001bc511f4780] video:14903KiB audio:271252KiB subtitle:0KiB other streams:0KiB global headers:0KiB muxing overhead: unknown
frame=34683 fps=449 q=-0.0 Lsize=N/A time=00:24:06.57 bitrate=N/A speed=18.7x    
